<svg id="Layer_1" data-name="Layer 1" xmlns="http://www.w3.org/2000/svg" viewBox="0 0 682.46 682.46"><defs><style>.cls-1{fill:#26304f;}.cls-2{fill:#14b99a;}.cls-3{isolation:isolate;font-size:64.66px;fill:#fff;font-family:Lato-Hairline, Lato;}.cls-4{fill:#f7dc5a;}</style></defs><title>JA logo-01</title><g id="Layer_3" data-name="Layer 3"><g id="Layer_7" data-name="Layer 7"><circle class="cls-1" cx="341.23" cy="341.23" r="341.23"/></g></g><g id="Layer_2" data-name="Layer 2"><rect class="cls-2" x="183.85" y="392.64" width="461.33" height="79.16"/><rect class="cls-2" x="230.6" y="460.82" width="17.2" height="17.2"/><rect class="cls-2" x="505.8" y="460.82" width="17.2" height="17.2"/><polygon class="cls-2" points="299.4 460.82 265 460.82 265 478.02 299.4 478.02 316.6 478.02 316.6 460.82 299.4 460.82"/><polygon class="cls-2" points="368.2 460.82 333.8 460.82 333.8 478.02 368.2 478.02 385.4 478.02 385.4 460.82 368.2 460.82"/><polygon class="cls-2" points="437 460.82 402.6 460.82 402.6 478.02 437 478.02 454.2 478.02 454.2 460.82 437 460.82"/><polygon class="cls-2" points="574.6 460.82 540.2 460.82 540.2 478.02 574.6 478.02 591.8 478.02 591.8 460.82 574.6 460.82"/><rect class="cls-2" x="173.31" y="236.5" width="309.38" height="31.23"/><path class="cls-2" d="M173.31,441.67q0,18.08-5.48,29t-14.24,16.71a51.63,51.63,0,0,1-18.9,7.67,107,107,0,0,1-20,1.92,100.09,100.09,0,0,1-20.27-1.92Q85.1,493.17,78,491q-7.68,18.08-9.31,33.42a205,205,0,0,0,21.64,4.93,166.59,166.59,0,0,0,28.76,2.19,139.55,139.55,0,0,0,34-4.11,79.23,79.23,0,0,0,29.31-14q12.87-9.86,20.54-26.3t7.67-40.54v-54h-37.3Z"/><rect class="cls-2" x="173.31" y="298.95" width="336.55" height="31.23"/><rect class="cls-2" x="173.31" y="361.41" width="37.25" height="31.23"/><path class="cls-2" d="M101,131a58.52,58.52,0,0,0-.82,7.94c-.19,3.48-.27,6.49-.27,9,0,2.93.09,5.94.27,9a55.29,55.29,0,0,0,.82,7.4h72.31v40.81h37.25V131Z"/></g><g id="Layer_4" data-name="Layer 4"><text class="cls-3" transform="translate(203.02 453.41) scale(1.02 1)">Jeremie Amano</text></g><g id="Layer_1-2" data-name="Layer 1"><polygon class="cls-4" points="562.09 375.19 438.97 80.48 436.4 74.33 429.74 74.33 407.41 74.33 400.75 74.33 398.18 80.48 275.06 375.19 269.27 389.04 284.28 389.04 307.25 389.04 313.95 389.04 316.5 382.86 351.6 297.72 358.38 281.45 418.62 135.69 478.74 281.38 485.3 297.64 485.31 297.69 485.33 297.74 520.65 382.88 523.21 389.04 529.89 389.04 552.87 389.04 567.88 389.04 562.09 375.19"/></g></svg>