<?xml version="1.0" standalone="no"?>
<!DOCTYPE svg PUBLIC "-//W3C//DTD SVG 20010904//EN"
 "http://www.w3.org/TR/2001/REC-SVG-20010904/DTD/svg10.dtd">
<svg version="1.0" xmlns="http://www.w3.org/2000/svg"
 width="260.000000pt" height="260.000000pt" viewBox="0 0 260.000000 260.000000"
 preserveAspectRatio="xMidYMid meet">
<metadata>
Created by potrace 1.11, written by Peter Selinger 2001-2013
</metadata>
<g transform="translate(0.000000,260.000000) scale(0.100000,-0.100000)"
fill="#000000" stroke="none">
<path d="M117 2142 c-16 -3 -17 -65 -17 -818 l0 -814 28 -1 c76 -2 316 2 320
6 3 2 6 111 7 242 4 316 2 297 25 240 26 -62 36 -78 148 -225 100 -130 179
-215 224 -238 16 -8 44 -12 70 -9 38 4 343 17 391 16 9 0 17 2 17 4 0 3 -19
37 -42 76 -51 85 -120 170 -250 310 -148 160 -212 248 -262 360 l-25 57 81
133 c66 110 182 305 267 451 9 15 38 62 65 104 35 55 45 79 38 86 -14 14 -360
17 -415 4 -53 -12 -95 -66 -145 -183 -27 -62 -60 -119 -90 -154 -26 -30 -59
-71 -74 -90 l-27 -34 -2 60 c0 33 -2 94 -4 135 -2 41 -3 119 -4 172 l-1 97
-37 7 c-37 7 -257 11 -286 6z"/>
<path d="M1697 2084 c-1 -1 -16 -4 -34 -7 -47 -7 -134 -60 -188 -114 -87 -86
-155 -218 -189 -368 -15 -71 -17 -330 -2 -400 42 -195 144 -329 301 -395 77
-31 217 -60 295 -60 l47 0 67 -85 c37 -47 73 -91 79 -98 7 -7 37 -42 67 -77
81 -97 157 -170 174 -170 15 0 191 212 234 282 21 34 22 39 9 65 -8 15 -88
102 -176 193 -111 113 -160 169 -155 180 7 17 52 192 58 224 4 20 11 59 21
121 13 76 17 262 6 301 -11 42 -74 128 -158 217 -78 83 -299 182 -423 191 -17
1 -32 1 -33 0z"/>
</g>
</svg>
